<svg width="307" height="323" viewBox="0 0 307 323" fill="none" xmlns="http://www.w3.org/2000/svg">
<rect x="225" y="97.9615" width="60" height="60" rx="15" transform="rotate(-60 225 97.9615)" fill="#FFACAC"/>
<path d="M232.135 131.174C237.242 134.161 241.501 138.551 244.468 143.886C247.435 149.222 249 155.307 249 161.506C249 167.705 247.435 173.791 244.468 179.126C241.501 184.462 237.242 188.852 232.135 191.838L15.2024 318.727C10.2471 321.621 4.66846 323.092 -0.98401 322.996C-6.63648 322.899 -12.1677 321.237 -17.0328 318.175C-21.8979 315.112 -25.9289 310.754 -28.7288 305.53C-31.5286 300.306 -33.0007 294.397 -33 288.383V34.6063C-32.999 28.5917 -31.5246 22.6812 -28.7221 17.4573C-25.9196 12.2335 -21.8856 7.87655 -17.0179 4.81605C-12.1502 1.75554 -6.6168 0.0970819 -0.963001 0.0041342C4.6908 -0.0888135 10.2698 1.38696 15.2241 4.28599L232.135 131.174Z" fill="#03B962"/>
</svg>
